<?xml version="1.0" encoding="utf-8"?>
<!-- Generator: Adobe Illustrator 17.0.0, SVG Export Plug-In . SVG Version: 6.00 Build 0)  -->
<!DOCTYPE svg PUBLIC "-//W3C//DTD SVG 1.1//EN" "http://www.w3.org/Graphics/SVG/1.1/DTD/svg11.dtd">
<svg version="1.1" id="Layer_1" xmlns="http://www.w3.org/2000/svg" xmlns:xlink="http://www.w3.org/1999/xlink" x="0px" y="0px"
	 width="600px" height="600px" viewBox="0 0 600 600" enable-background="new 0 0 600 600" xml:space="preserve">
<g id="XMLID_57_">
	<g>
		<path fill="none" stroke="#D7642A" stroke-width="1.25" stroke-linecap="round" stroke-linejoin="round" d="M213.949,34.335
			c0,0-0.998,0.337-2.87,0.968c-1.864,0.652-4.632,1.518-8.088,2.799c-3.427,1.358-7.612,2.956-12.358,4.912
			c-2.34,1.056-4.83,2.179-7.455,3.364c-1.311,0.595-2.656,1.206-4.033,1.831c-1.348,0.684-2.728,1.383-4.136,2.097
			c-2.806,1.45-5.756,2.913-8.753,4.528c-2.881,1.655-5.775,3.317-8.68,4.986l-2.489,1.444l-2.43,1.551
			c-1.62,1.038-3.243,2.078-4.87,3.12c-1.613,1.062-3.28,2.051-4.855,3.183c-1.581,1.122-3.166,2.246-4.753,3.373
			c-1.585,1.13-3.173,2.262-4.764,3.397c-1.571,1.16-3.09,2.398-4.64,3.6c-12.384,9.627-24.193,20.398-35.073,32.335
			c-21.726,23.879-39.951,52.222-52.668,83.719c-6.363,15.736-11.351,32.236-14.784,49.217c-3.466,16.977-5.226,34.45-5.416,52.035
			c-0.398,35.157,5.858,71.16,19.134,104.965c13.214,33.814,33.339,65.354,59.022,91.975c25.645,26.643,56.852,48.37,91.326,63.11
			c17.226,7.375,35.244,13.029,53.665,16.766c18.417,3.75,37.221,5.624,55.982,5.631c37.524,0.026,75.211-7.562,109.653-22.366
			c34.478-14.731,65.691-36.45,91.343-63.087c25.689-26.614,45.823-58.149,59.046-91.959c13.286-33.801,19.551-69.803,19.163-104.96
			c-0.183-17.585-1.944-35.058-5.405-52.036c-3.427-16.983-8.411-33.484-14.769-49.221c-12.707-31.5-30.925-59.849-52.644-83.735
			c-10.881-11.935-22.684-22.713-35.066-32.343c-1.549-1.203-3.07-2.437-4.638-3.603c-1.591-1.134-3.179-2.267-4.764-3.397
			c-1.587-1.127-3.172-2.251-4.753-3.373c-1.571-1.137-3.241-2.123-4.853-3.186c-1.627-1.042-3.25-2.082-4.87-3.12l-2.43-1.551
			l-2.487-1.446c-2.925-1.68-5.837-3.353-8.738-5.02c-2.997-1.616-5.946-3.079-8.753-4.529c-1.409-0.714-2.788-1.414-4.136-2.098
			c-1.377-0.625-2.722-1.236-4.033-1.831c-2.625-1.184-5.115-2.308-7.455-3.364c-4.746-1.957-8.931-3.554-12.358-4.912
			c-3.456-1.281-6.224-2.147-8.088-2.799c-1.872-0.632-2.87-0.968-2.87-0.968"/>
		<g>
			<g>
				<path fill="none" stroke="#8D6025" stroke-width="2.5" stroke-linecap="round" stroke-linejoin="round" d="M296.193,33.078
					c-21.579,0.356-43.176,3.155-64.096,8.65c-20.893,5.571-41.149,13.569-60.129,23.922c-12.902,7.048-25.157,15.242-36.717,24.298
					c-11.54,9.082-22.403,19.043-32.308,29.895c-9.882,10.871-18.888,22.532-26.907,34.842c-8.015,12.308-15.09,25.257-20.886,38.77
					c-5.841,13.489-10.587,27.45-14.193,41.703l-2.478,10.744l-1.956,10.849l-0.476,2.714l-0.351,2.733l-0.696,5.466
					c-0.222,1.823-0.48,3.643-0.669,5.469l-0.422,5.492c-0.696,7.317-0.77,14.661-0.909,21.998l0.276,11.007
					c0.012,1.836,0.171,3.666,0.31,5.497l0.417,5.492c1.265,14.629,3.618,29.185,7.236,43.44
					c3.686,14.234,8.51,28.169,14.424,41.625l2.271,5.023c0.755,1.675,1.5,3.356,2.366,4.977l5.037,9.805l5.493,9.556
					c0.884,1.612,1.929,3.126,2.905,4.681l2.974,4.639c16.168,24.523,36.249,46.508,59.522,64.457
					c46.218,36.383,105.043,56.237,163.767,56.191c58.724,0.046,117.549-19.807,163.767-56.191
					c23.274-17.949,43.354-39.934,59.522-64.457l2.974-4.639c0.976-1.556,2.02-3.07,2.905-4.681l5.493-9.556l5.037-9.805
					c0.867-1.621,1.611-3.302,2.366-4.977l2.271-5.023c5.914-13.456,10.738-27.39,14.424-41.625
					c3.618-14.255,5.97-28.811,7.236-43.44l0.417-5.492c0.139-1.831,0.298-3.661,0.31-5.497l0.276-11.007
					c-0.139-7.337-0.212-14.681-0.909-21.998l-0.422-5.492c-0.189-1.826-0.447-3.646-0.669-5.469l-0.696-5.466l-0.351-2.733
					l-0.476-2.714l-1.956-10.849l-2.478-10.744c-3.606-14.253-8.352-28.213-14.193-41.703c-5.796-13.513-12.87-26.461-20.886-38.77
					c-8.019-12.31-17.025-23.971-26.907-34.842c-9.905-10.853-20.768-20.813-32.308-29.895
					c-11.56-9.056-23.816-17.251-36.717-24.298c-18.98-10.353-39.235-18.351-60.127-23.922c-20.919-5.495-42.515-8.294-64.094-8.65"
					/>
				<g>
					<path fill="#8D6025" d="M295.937,29.323c2.25-0.055,4.068,1.587,4.063,3.662c-0.006,2.075-1.775,3.802-3.952,3.856
						c-2.18,0.054-3.999-1.585-4.066-3.659C291.915,31.109,293.685,29.379,295.937,29.323z"/>
				</g>
				<g>
					<path fill="#8D6025" d="M304.064,29.324c-2.247-0.055-4.069,1.587-4.063,3.662c0.006,2.075,1.777,3.802,3.952,3.856
						c2.177,0.054,4.001-1.585,4.068-3.659C308.088,31.109,306.313,29.379,304.064,29.324z"/>
				</g>
			</g>
		</g>
		<g>
			<g>
				<path fill="none" stroke="#D7642A" stroke-width="2.5" d="M253.741,18.671l-1.941,2.585c-3.995,5.378-5.806,10.813-6.117,16.224
					c-0.303,5.446,0.863,10.758,2.845,15.812c1.981,5.028,4.807,9.963,7.898,14.449c3.1,4.503,6.476,8.61,9.731,12.147
					c3.282,3.675,6.445,6.765,9.206,9.034c1.383,1.152,2.66,2.026,3.824,2.797c1.163,0.76,2.199,1.281,3.078,1.532
					c1.755,0.502,2.892-0.075,3.116-1.966c0.215-1.89-0.469-5.095-2.582-9.841c-1.9-4.247-4.275-7.974-6.998-11.09
					c-2.714-3.049-5.783-5.578-9.062-7.669c-3.289-2.159-6.74-3.595-10.244-4.737c-3.502-1.135-7.056-1.972-10.426-2.271
					c-3.383-0.36-6.648-0.501-9.611-0.432c-2.938,0.171-5.594,0.477-7.822,0.808c-2.223,0.35-4.043,0.644-5.258,1.003
					c-1.224,0.331-1.896,0.553-1.896,0.553s-0.91,0.308-2.616,0.885c-1.699,0.597-4.225,1.38-7.376,2.548
					c-3.123,1.245-6.939,2.7-11.269,4.478c-2.134,0.964-4.404,1.99-6.797,3.072c-1.196,0.541-2.424,1.097-3.68,1.665
					c-1.229,0.625-2.486,1.265-3.77,1.918c-2.558,1.325-5.251,2.655-7.986,4.127c-2.628,1.511-5.267,3.028-7.917,4.552l-2.273,1.314
					l-2.215,1.419c-1.478,0.947-2.959,1.897-4.443,2.848c-1.472,0.969-2.997,1.865-4.432,2.901
					c-1.442,1.025-2.887,2.053-4.335,3.082c-1.448,1.03-2.898,2.062-4.351,3.096c-1.435,1.059-2.817,2.193-4.232,3.29
					c-11.303,8.787-22.088,18.616-32.019,29.513c-19.829,21.803-36.457,47.668-48.053,76.386
					c-5.803,14.348-10.352,29.39-13.484,44.876c-3.165,15.482-4.765,31.425-4.939,47.495c-0.358,32.135,5.348,64.942,17.452,95.768
					c12.047,30.83,30.409,59.614,53.855,83.917c23.411,24.323,51.896,44.153,83.331,57.595
					c31.407,13.507,65.736,20.442,100.033,20.427c34.296,0.018,68.628-6.898,100.039-20.399
					c31.438-13.433,59.929-33.256,83.346-57.573c23.452-24.296,41.822-53.076,53.877-83.903
					c12.112-30.822,17.827-63.628,17.478-95.763c-0.232-32.166-6.789-63.692-18.399-92.376
					c-11.587-28.722-28.208-54.591-48.031-76.4c-9.933-10.896-20.712-20.731-32.013-29.52c-1.414-1.098-2.799-2.228-4.23-3.292
					c-1.453-1.034-2.904-2.066-4.351-3.096c-1.448-1.029-2.893-2.057-4.335-3.082c-1.431-1.042-2.96-1.933-4.43-2.904
					c-1.484-0.951-2.965-1.9-4.443-2.848l-2.215-1.419l-2.271-1.316c-2.668-1.534-5.324-3.061-7.97-4.582
					c-2.734-1.473-5.427-2.802-7.985-4.127c-1.284-0.653-2.541-1.293-3.77-1.918c-1.256-0.568-2.483-1.124-3.68-1.665
					c-2.393-1.082-4.664-2.108-6.797-3.072c-4.33-1.779-8.146-3.233-11.269-4.479c-3.151-1.169-5.677-1.951-7.376-2.548
					c-1.706-0.577-2.616-0.885-2.616-0.885s-0.673-0.222-1.896-0.553c-1.215-0.36-3.036-0.652-5.258-1.003
					c-2.228-0.331-4.884-0.637-7.823-0.808c-2.964-0.069-6.229,0.072-9.612,0.432c-3.371,0.299-6.925,1.136-10.427,2.271
					c-3.503,1.142-6.955,2.577-10.244,4.737c-3.279,2.091-6.349,4.62-9.062,7.669c-2.723,3.116-5.098,6.843-6.997,11.09
					c-2.112,4.746-2.796,7.951-2.581,9.841c0.224,1.891,1.362,2.468,3.117,1.966c0.879-0.251,1.914-0.772,3.078-1.532
					c1.165-0.771,2.441-1.645,3.825-2.797c2.761-2.269,5.924-5.359,9.207-9.033c3.255-3.536,6.632-7.644,9.732-12.146
					c3.092-4.486,5.918-9.422,7.899-14.449c1.982-5.053,3.148-10.365,2.845-15.812c-0.312-5.412-2.122-10.847-6.118-16.225
					l-1.941-2.585"/>
				<g>
					<path fill="#D7642A" d="M261.898,8.583c-6.005,3.354-13.994,7.66-20.385,9.437c0,0,0.704,0.09,1.766,0.288
						c1.055,0.189,2.463,0.44,3.87,0.691c2.785,0.514,5.569,1.027,5.569,1.027s1.641,1.995,3.282,3.991
						c1.62,1.978,3.207,4.054,3.207,4.054C258.551,22.315,259.878,14.472,261.898,8.583z"/>
				</g>
				<g>
					<path fill="#D7642A" d="M338.109,8.584c6.005,3.355,13.991,7.66,20.384,9.438c0,0-0.704,0.09-1.766,0.288
						c-1.056,0.189-2.463,0.44-3.871,0.691c-2.785,0.514-5.57,1.027-5.57,1.027s-1.64,1.994-3.28,3.989
						c-1.619,1.977-3.205,4.052-3.205,4.052C341.458,22.316,340.129,14.473,338.109,8.584z"/>
				</g>
			</g>
		</g>
	</g>
</g>
</svg>
